<svg
   xmlns:svg="http://www.w3.org/2000/svg"
   xmlns="http://www.w3.org/2000/svg"
   width="400"
   height="547.5728155339806"
   viewBox="0 0 400 547.5728155339806"
   style="display: block;"
   version="1.1">
  <defs/>
  <g
     transform="translate(-397.03633,23.789367)">
    <path
       style="fill:#fefefe;fill-rule:evenodd;stroke:none;fill-opacity:1"
       d="m 579.45665,-23.049367 c -44.84918,3.781005 -92.13682,16.6603763 -122.399,52.221 -27.50804,29.662087 -43.22203,74.455007 -26.75,113.438997 15.68251,41.80609 53.63237,72.05857 95.549,85.149 30.6203,11.78251 63.90341,13.53847 96.217,14.824 -24.92987,-12.65727 -53.71316,-17.27062 -77.817,-32.173 -29.7914,-16.29332 -56.52472,-43.83577 -59.637,-79.223 -2.69209,-14.65104 -0.36302,-35.497186 3.47194,-46.776997 2.24361,-9.003068 5.98864,-17.534863 11.55906,-26.969 31.15011,-48.2071242 90.92445,-71.751212 147.04204,-69.086087 12.30559,-0.193282 40.38677,3.9375679 14.16396,-3.344913 -26.16519,-8.175976 -54.19423,-8.931046 -81.4,-8.06 z m -24,226.324997 c 39.97347,19.60695 85.47847,28.16671 121.067,56.4215 18.86681,15.73611 35.64743,33.16403 43.688,56.9135 18.09595,50.51825 -5.78629,110.86561 -52.755,136.354 -56.55766,34.28879 -136.93319,19.54956 -178.411,-31.965 -21.18487,-24.34741 -32.75396,-55.26654 -54.87,-78.881 -12.09113,1.80111 -14.85221,16.5157 -20.484,25.365 -6.86516,18.05722 -16.52071,36.94422 -14.635,56.382 18.7644,34.65636 53.70877,57.07352 88,74.382 48.37934,22.35139 104.08004,30.01053 156.824,21.563 45.47316,-8.15701 88.12051,-31.82749 119.376,-65.737 29.62313,-33.29932 43.78955,-82.2712 27.445,-125.063 -13.07584,-42.60822 -49.77062,-72.97949 -88.845,-91.4 -38.86081,-16.15762 -81.02604,-21.7208 -122.243,-28.27938 -8.29501,-1.00414 -16.17372,-3.77583 -24.157,-6.05562 z"
       />
    <path
       style="fill:#686868;fill-rule:evenodd;stroke:none"
       d="m 631.05665,-11.07069 c -51.21539,1.9754878 -103.13587,26.015912 -131.6,69.661 -21.9343,37.774566 -17.45125,91.91301 16.198,121.594 26.66775,25.49695 62.8682,37.55261 97.002,49.36 36.67032,14.39038 74.25831,34.38534 94.043,70.246 24.27157,45.84098 11.67663,109.23509 -32.062,138.4 -32.68844,24.55829 -76.92584,31.5772 -115.981,19 -36.11003,-9.31253 -63.90792,-37.23838 -82,-68.712 -9.05246,-13.65388 -16.13969,-28.55991 -24.767,-42.288 -6.79304,1.74645 4.05767,11.30645 5.167,16.229 16.99728,29.48722 33.77321,60.4848 62.573,79.929 32.73272,23.1049 76.73604,30.0131 115.451,19.842 29.9395,-9.74672 57.81934,-28.64249 73.531,-56.8 22.53394,-40.50892 17.95456,-95.56239 -14.755,-129.146 -30.30298,-31.77979 -72.72544,-47.39417 -113.4,-61.254 -29.03349,-11.15925 -57.48119,-27.49345 -76.032,-53.149 -24.53975,-38.57219 -18.13984,-94.859975 16.918,-124.699 34.33391,-34.5406345 83.72905,-49.193751 131.92778,-46.0789726 11.20367,-0.059585 32.20204,-0.7598996 10.28622,-1.5170274 -10.81528,-0.707624 -21.65679,-1.499859 -32.5,-0.617 z m -38.973,290.418 c -33.37326,3.23769 -61.21963,30.8793 -64.227,64.443 -4.25961,37.85056 26.54251,74.35691 64.4,77.257 35.94635,4.13697 70.91308,-22.51746 77.2,-57.624 7.1204,-33.92298 -14.38654,-69.88467 -47,-80.433 -9.6138,-3.51061 -20.20382,-4.64011 -30.373,-3.643 z"
       />
  </g>
</svg>
